<svg width="932" height="63" xmlns="http://www.w3.org/2000/svg" xmlns:sketch="http://www.bohemiancoding.com/sketch/ns"><title>elevator-phrase</title><path d="M22.506 13.543c-.498-.067-2.968-.23-3.62 3.041-.699 3.494-.993 10.903-.874 22.025l.01.999c-1.278 8.563-3.07 11.189-4.211 11.965-.25.171-.506.295-1.115.089-8.705-2.902-5.826-19.612-3.724-31.815 1.156-6.703 2.066-11.998 1.453-15.515-.288-1.659-1.867-2.756-3.525-2.478-1.658.288-2.769 1.867-2.478 3.524.433 2.476-.484 7.799-1.455 13.434-2.476 14.38-5.869 34.074 7.803 38.629.841.282 1.674.42 2.487.42 1.406 0 2.755-.416 3.976-1.245.52-.353 1.008-.784 1.463-1.273.226.725.534.965.971 1.3.922.707 2.166.831 3.206.315 1.717-.845 1.717-2.551 1.717-3.193 0-.274-.035-.54-.104-.794-.1-2.015-.272-7.145-.351-12.96.565-3.898.884-8.005 1.101-11.857l.077-1.286c.498-7.168.892-12.826-2.805-13.324zm132.246 34.827c-.069.026-7.067 2.281-9.664-.977-1.058-1.33-1.792-3.284-2.174-5.502 2.582.701 5.325.246 7.902-1.403 5.757-3.688 9.357-12.434 7.265-17.652-.518-1.292-2.72-5.405-9.261-4.125-4.847.942-8.654 4.55-10.722 10.151-.146.398-.242.821-.368 1.227-1.666-.24-4.063-.538-6.757-.727.506-1.625.987-3.254 1.442-4.852.028-.104 2.434-10.635.189-12.861-.786-.782-1.96-1.079-3.027-.768-1.808.53-2.182 2.204-2.34 2.921-.205.916-.542 2.24-.951 3.839-1.32 5.187-2.395 9.776-3.147 13.783-.049.179-.079.364-.095.55-.181.989-.36 1.974-.496 2.888-1.357 3.217-2.964 6.14-4.788 7.767-.55-1.099-1.278-3.812-1.782-10.444-.144-1.903-.341-4.505-3.12-4.615-1.018-.03-2.848.516-3.22 2.87-1.142 7.235-2.925 12.804-4.266 14.969-1.286-4.483-.597-18.855 1.737-33.694.132-.833-.089-1.684-.607-2.348-.52-.664-1.29-1.085-2.131-1.16-1.233-.106-2.413.299-3.342 1.146-2.046 1.871-2.809 5.622-2.887 14.579-1.936-.806-4.189-.788-6.574.142-5.903 2.303-12.536 10.592-15.053 18.406-.841-1.867-1.101-5.583-1.264-7.968-.12-1.773-.236-3.447-.502-4.803-.197-1.003-.823-4.058-3.724-3.68-2.974.39-2.84 2.407-2.476 7.795.108 1.607.23 3.429.23 4.227 0 3.851-.924 10.379-2.129 12.416-2.375-1.94-2.123-7.43-1.899-12.306.292-6.343.622-13.535-5.66-14.766-7.933-1.548-16.183 3.329-21.034 9.841-1.312-1.263-2.294-2.766-2.765-4.763l-.063-.244c-.134-.489-.542-1.988.008-4.387.557-2.596 6.643-6.183 11.39-5.973 2.889.134 3.059 1.554 3.151 2.317.199 1.672 1.712 2.866 3.386 2.663 1.672-.199 2.864-1.716 2.663-3.384-.549-4.576-3.884-7.448-8.922-7.68-6.895-.327-16.266 4.424-17.621 10.738-.587 2.555-.567 5.015.071 7.346.951 4.028 3.098 6.725 5.627 8.795l-.238.63c-2.704 7.547-.187 14.274 6.734 18.008 1.895 1.02 3.902 1.527 5.788 1.527 2.2 0 4.236-.691 5.739-2.051 2.452-2.228 2.98-5.783 1.414-9.506-2.212-5.258-6.69-7.846-10.643-10.131l-.723-.416c3.6-4.741 9.582-8.386 14.864-7.346 1.123.217.865 5.815.741 8.506-.303 6.573-.678 14.758 5.44 18.194 1.792 1.007 3.679 1.034 5.322.071 1.95-1.141 3.202-3.745 4.006-6.636.53.916 1.41 1.337 2.33 1.523l.104.54c.591 2.059 2.651 6.307 9.572 6.307 1.18 0 2.503-.124 3.986-.402 4.776-.904 8.075-4.992 10.326-10.023.384 1.269.88 2.305 1.509 3.039.991 1.162 2.332 1.802 3.772 1.802 1.268 0 4.343 0 7.212-7.156.817 1.761 1.908 2.976 3.391 3.579 1.134.457 3.437.882 6.127-1.491.26-.227.516-.471.768-.727.394 1.322.995 2.376 1.834 3.16.902.845 2.889 2.098 6.062 1.058 1.599-.53 2.466-2.25 1.94-3.851-.528-1.598-2.251-2.466-3.85-1.94l-.132.043c-.494-.973-.685-3.313.071-8.417.16-.392.305-.806.461-1.21 2.998.142 5.804.471 7.691.737-.423 5.75.861 11.522 3.709 15.103 2.541 3.197 6.3 4.046 9.58 4.046 3.586 0 6.6-1.016 6.836-1.099 1.587-.548 2.428-2.277 1.883-3.863-.541-1.594-2.269-2.439-3.862-1.901zm-105.951 1.267c.195.465.778 2.019.108 2.63-.607.55-2.415.812-4.534-.329-4.906-2.646-5.06-6.652-4.144-9.806l.496.29c3.573 2.062 6.659 3.845 8.075 7.215zm39.49 1.854c-3.846.731-6.056.189-6.566-1.596-1.526-5.321 5.914-17.744 12.061-20.144.498-.193.939-.313 1.343-.313.792 0 1.442.465 2.09 1.759.118.234.262.447.427.636-1.164 8.374-4.374 18.718-9.355 19.659zm55.522-20.526c.922-2.496 2.74-5.612 6.17-6.28 1.398-.268 2.222-.134 2.44.41.833 2.08-1.27 7.936-4.896 10.261-1.696 1.087-3.179 1.016-4.713-.268.195-1.432.526-2.835.999-4.123zm67.408-8.256c2.042-.703 4.047 1.464 5.062 2.821 1.01 1.347 2.921 1.623 4.266.613 1.347-1.009 1.623-2.919.613-4.265-4.867-6.501-9.972-5.61-11.945-4.925-4.749 1.653-7.943 7.304-7.766 13.74.098 3.538 3.348 6.763 7.114 10.503 2.042 2.021 5.842 5.797 5.739 7.117-.282.278-1.491.713-4.063.303-3.996-.63-8.264-2.683-10.582-4.318.266-.01.563-.018.892-.018 1.684 0 3.047-1.363 3.047-3.047 0-1.682-1.363-3.047-3.047-3.047-1.82 0-7.358 0-8.416 3.944-.762 2.837 1.298 5.689 6.121 8.474 3.248 1.877 8.979 4.29 13.899 4.29 2.509 0 4.806-.63 6.454-2.271 1.192-1.19 1.82-2.677 1.818-4.3-.006-3.946-3.681-7.592-7.571-11.453-1.938-1.924-5.182-5.141-5.314-6.343-.114-4.206 1.81-7.167 3.679-7.817zm35.748 17.673c-1.489-.786-3.33-.217-4.118 1.273-1.682 3.181-4.532 5.431-7.437 5.868-2.401.37-4.658-.496-6.716-2.555-1.026-1.022-2.214-4.395-2.005-7.913 1.548.729 3.226.725 4.829-.041 4.867-2.34 7.053-11.185 6.574-15.03-.421-3.366-2.566-4.154-3.47-4.336-2.785-.561-5.873 1.194-11.868 11.591-4.108 7.129-1.777 16.631 1.631 20.037 2.887 2.89 6.379 4.42 9.995 4.42.642 0 1.29-.047 1.938-.148 4.855-.727 9.31-4.111 11.917-9.047.788-1.489.219-3.331-1.27-4.119zm-15.524-13.507c-.597 1.968-1.511 3.928-2.354 4.527l-.154-.146-.191-.183c1.065-1.787 1.96-3.152 2.7-4.198zm199.502 18.645c-.746-.378-1.57-.412-2.306-.171-1.012-4.755-1.641-14.388-1.641-18.373 0-3.039-2.259-3.512-2.712-3.577-2.803-.396-3.466 1.905-4.475 5.389-.445 1.542-1.056 3.654-1.457 4.491l-.67 1.416c-.837 1.781-1.619 3.451-2.543 4.895-.008-1.17-.008-2.376-.008-3.451-.004-8.401-.093-12.57-.89-14.502-.63-1.527-2.277-2.311-3.917-1.869-3.388.916-15.648 14.66-14.712 21.402.23 1.668 1.777 2.823 3.437 2.6 1.668-.232 2.832-1.771 2.6-3.437-.272-1.964 3.915-7.95 7.317-11.746.069 2.472.071 5.397.071 7.55.006 9.68.006 11.421 1.985 12.599.92.548 2.17.571 3.116.059 3.646-1.98 5.802-5.082 7.468-8.25.766 6.309 2.314 11.821 5.353 12.538.28.065.587.11.91.11 1.365 0 3.029-.754 4.441-3.587.75-1.505.138-3.335-1.367-4.085zm47.089 2.6c-.758.343-1.174.347-1.233.329-1.182-.697-1.444-5.484-.924-10.519.652-1.731 1.02-3.063 1.134-3.491.764-2.888 2.042-7.734-1.396-8.76-.987-.297-3.09-.211-3.917 2.252-.404 1.221-1.274 4.611-1.794 8.579-1.631 4.054-4.024 7.653-5.887 7.82-.575-.467-.89-1.865-1.008-3.684l.15-.437c1.095-3.233 1.349-6.91 1.57-10.159l.043-.615c.02-.264.071-.672.122-1.101.248-2.045.555-4.59-2.066-5.334-1.219-.349-2.919.077-3.73 1.832-.902 1.948-2.411 8.744-2.216 14.788-1.853 4.649-5.274 9.698-9.314 11.48-2.121.932-4.24.906-6.482-.079-1.485-.658-2.426-4.873-1.836-10.452 1.406.227 2.885.136 4.41-.276 5.932-1.6 11.248-8.216 11.153-13.87-.067-3.898-2.594-6.81-6.767-7.787-4.993-1.176-9.718 3.134-12.658 11.547-.904-.536-2.064-.589-3.047-.039-1.467.819-1.991 2.675-1.168 4.143.701 1.249 1.495 2.328 2.373 3.221-1.27 7.702-.721 16.531 5.089 19.084 1.926.845 3.89 1.269 5.838 1.269 1.885 0 3.754-.396 5.552-1.19 3.797-1.674 6.913-4.899 9.261-8.498 1.278 1.535 3.019 2.301 5.03 2.173 2.192-.142 4.077-1.186 5.672-2.681.471 2.169 1.32 4.038 2.71 5.289 1.178 1.062 3.772 2.563 7.86.707 1.532-.695 2.206-2.502 1.511-4.034-.697-1.527-2.507-2.208-4.034-1.507zm-37.048-15.481c1.989-5.949 4.555-8.317 5.67-8.071 2.038.477 2.052 1.406 2.062 1.958.047 2.649-3.171 6.948-6.649 7.887-.329.091-.93.254-1.67.158.177-.638.374-1.282.587-1.932zm134.401 18.942c-1.341-.768-3.397-1.111-5.56 1.617l-.098.126c-.62-.211-1.064-.615-1.448-1.273-1.198-2.07-1.288-5.823-.815-9.859 1.217-1.98 2.092-3.831 2.497-5.175 1.284-4.267 2.903-11.614-.717-12.879-.114-.043-2.809-.94-4.116 2.139-.538-.739-1.304-1.312-2.257-1.645-3.021-1.062-7.86.638-12.063 3.652l-.272-.227c-5.127-3.504-9.162-3.002-11.636-1.968-1.686.705-3.234 1.869-4.632 3.494.1-5.098-.098-5.234-1.262-6.071-.916-.656-2.119-.756-3.13-.254-1.562.772-1.678.847-1.849 6.581-2.048-.622-4.784-1.684-8.195-3.177.626-2.921 1.235-5.386 1.676-6.77.975-3.085-1.627-4.103-1.741-4.145-2.738-1.036-3.766 1.286-4.841 3.745-.512 1.164-1.111 2.537-1.477 3.24-.156.301-.315.577-.473.843-2.539-1.056-4.059-1.196-5.213.762l-.164.386c-.118-.39-.311-.764-.593-1.097-4.282-5.029-12.563-6.725-18.47-3.778-4.758 2.374-6.822 7.249-5.519 13.048.66 2.915 2.127 5.179 3.833 7.101-1.973 1.948-3.263 4.085-3.543 6.469-.398 3.367 1.274 6.485 4.959 9.266 1.623 1.227 4.575 2.328 7.368 2.328 1.381 0 2.722-.266 3.843-.928 2.094-1.223 3.088-3.491 2.722-6.223-.622-4.633-3.202-7.704-5.899-10.281 3.685-2.131 7.914-3.979 10.22-4.986 2.074-.904 3.571-1.562 4.504-2.122.459-.274.89-.544 1.308-.819-1.481 8.539-2.139 18.044 1.694 20.183 3.665 2.043 7.185-2.074 8.341-3.424 1.099-1.275.955-3.199-.323-4.296-1.28-1.099-3.198-.948-4.297.325-.205.244-.394.457-.569.642-.144-2.935.549-8.193 1.459-13.328 3.675 1.574 6.781 2.716 9.367 3.305-.085 2.541-.189 4.783-.297 5.586-.124.894-.345 2.417-.563 3.904-.217 1.489-.396 2.701-.479 3.684l-.053.292.033.008c-.171 2.456.329 3.384 2.428 3.729.095.016.274.041.494.041.916 0 2.619-.37 3.098-3.01 1.861-10.192 5.07-17.148 8.587-18.621.536-.221 2.074-.831 4.926.808-.839.987-1.583 2.017-2.163 3.079-3.181 5.797-1.824 11.624 3.722 15.989 2.344 1.842 5.138 2.33 8.071 1.401 1.916-.603 3.789-1.818 5.515-3.343.262 2.039.794 3.912 1.686 5.455 1.432 2.478 3.667 3.999 6.464 4.395.248.037.49.051.719.051 2.163 0 3.516-1.458 4.221-2.321.857-.152 1.643-.67 2.111-1.485.831-1.467.323-3.327-1.14-4.164zm-83.448-.719c-1.264-.948-2.734-2.36-2.582-3.684.114-.957.806-1.958 1.865-2.963 2.482 2.271 4.522 4.379 4.942 7.501l.022.226c-.918.195-3.214-.297-4.248-1.079zm15.943-22.57c-.595.357-2.153 1.038-3.801 1.755-4.408 1.931-8.79 3.954-12.39 6.219-1.314-1.412-2.318-2.89-2.726-4.708-.695-3.093.053-5.145 2.294-6.262 3.364-1.68 8.664-.601 11.108 2.275 1.089 1.286 3.009 1.44 4.29.349.368-.313.632-.699.811-1.111.167.449.451.861.794 1.247l-.38.236zm53.71 11.76c-2.036 3.026-4.942 6.278-7.622 7.127-1.004.319-1.717.205-2.464-.382-3.919-3.083-3.285-5.827-2.47-7.629 2.153-4.751 8.252-8.12 10.941-8.703.27 1.156 1.203 2.098 2.446 2.311.213.039.429.053.642.043-.565 2.173-1.105 4.668-1.473 7.233zm41.921-11.21c-.733-1.952-1.97-3.4-3.551-4.282l.445.026c1.641 0 3.49-.335 5.57-1.099 3.413-1.247 5.186-4.019 6.098-7.038.735.971 1.893 1.609 3.206 1.609 2.231 0 4.036-1.808 4.036-4.038 0-2.23-1.808-4.038-4.036-4.038-.882 0-1.69.29-2.354.768.008-.29.026-.593.024-.869.262-.577.345-1.237.199-1.901-.362-1.631-.496-2.401-.52-2.551l-.026.004-.083-.477c-.49-1.554-2.105-2.447-3.691-2.027-1.899.506-2.298 1.763-2.157 3.461l-.057.008c.508 3.065.524 10.18-2.728 11.368-5.893 2.151-7.779-.705-10.968-8.248-.918-2.163-1.865-4.399-3.076-6.219-.939-1.401-2.828-1.777-4.225-.845-1.398.932-1.782 2.825-.845 4.225.89 1.341 1.69 3.223 2.531 5.216 1.735 4.093 4.045 9.516 8.65 11.705-.4.004-.805.018-1.225.073-7.015.93-15.677 8.933-16.26 15.022-.329 3.374 1.719 6.105 4.453 8.496-1.414.573-2.222 1.71-2.527 2.789-1.02 3.644 2.856 7.913 5.938 9.782 1.839 1.121 3.707 1.674 5.469 1.674 1.993 0 3.852-.713 5.363-2.131 1.757-1.643 2.032-3.38 1.952-4.546-.246-3.52-3.726-5.973-7.75-8.815-2.619-1.844-6.998-4.931-6.832-6.664.262-2.714 6.397-8.957 10.994-9.564 1.444-.199 1.904.276 2.277 1.269.591 1.574 2.354 2.368 3.925 1.781 1.572-.596 2.37-2.351 1.781-3.923zm-15.644 22.088c1.631 1.148 4.238 2.984 5.004 4.04-.307.254-.876.577-2.056.201-1.647-.528-3.098-1.893-3.884-2.947.416-.339.739-.782.936-1.294zm27.384-.152c-1.424-.888-3.307-.457-4.197.973-.524.841-.975 1.517-1.369 2.07.024-5.752 1.973-17.232 3.238-23.396l.118-.39c.179-.814.341-1.556.453-2.218l.118-.475-.043-.012c.242-1.877-.087-3.093-1.989-3.686-1.507-.471-3.135.292-3.73 1.757-.043.091-.1.317-.183.658h-.004l-.004.024c-.549 2.275-1.975 9.459-2.873 15.548-2.198 14.829-1.016 18.556 1.774 19.978.636.329 1.26.471 1.865.471 3.378 0 6.186-4.503 7.805-7.105.886-1.426.449-3.305-.979-4.196zm34.756-20.482c-1.203-2.502-3.634-3.953-6.759-3.953-2.998 0-6.316 1.318-9.168 3.361.998-1.936 1.901-3.473 2.523-4.085 1.306-.463 2.17-1.777 2.007-3.213-.191-1.672-1.731-2.872-3.368-2.685-3.376.382-5.733 4.633-12.089 19.058l-.758 1.72c-.063-4.584-.004-9.707.13-12.526.388-.573.587-1.282.512-2.025-.1-.94-.357-3.437-2.86-3.753-1.365-.177-2.805.705-3.297 2.033-.612 1.653-.632 10.419-.607 14.108.079 13.61.847 14.122 2.245 15.042.512.341 1.198.528 1.853.528.299 0 .591-.041.865-.118 1.877-.548 2.85-2.116 6.259-9.765.455 1.556 1.278 3.045 2.499 4.409 3.189 3.567 9.176 4.101 12.457 4.101h.004c8.156 0 17.113-3.057 18.45-8.9 1.065-4.629-2.604-9.116-10.896-13.338zm4.965 11.981c-.384 1.678-5.808 4.166-12.514 4.166h-.004c-4.479 0-7.061-1.115-7.914-2.068-1.459-1.631-1.733-3.305-.849-5.269 1.65-3.692 6.576-6.67 9.558-6.67 1.164 0 1.27.398 1.381.819.226.867.819 1.59 1.625 1.98 7.63 3.686 8.877 6.331 8.717 7.042zm95.33-25.781c1.026-.089 1.887-.676 2.371-1.501 6.545.837 11.193 3.325 14.793 7.852.603.754 1.493 1.148 2.391 1.148.662 0 1.333-.217 1.897-.664 1.312-1.048 1.532-2.965.484-4.282-5.316-6.674-12.518-9.987-22.667-10.421-2.363-.099-4.973-.041-6.133 1.964-.62 1.07-.583 2.393.091 3.453 1.339 2.1 4.863 2.612 6.773 2.452zm24.128 16.125c.634-.461 1.091-1.162 1.219-1.995.449-2.917-.374-4.566-2.448-4.901-3.027-.488-3.555 1.351-6.145 10.198-.967 3.307-2.403 8.47-2.588 9.556-.079.461-.13 1.082-.148 1.8-.605-.453-1.373-.686-2.176-.595-2.381.282-4.189 1.294-5.786 2.185-1.148.638-2.135 1.192-3.238 1.452-3.141.747-5.355.244-6.582-1.483-1.956-2.762-1.497-8.208 1.02-12.14 1.054-1.647 3.301-4.182 6.781-4.062l-.043.441c-.148 1.676 1.095 3.154 2.767 3.301 1.678.148 3.157-1.095 3.301-2.768l.043-.378c.479-4.645-1.857-6.077-3.904-6.463-5.578-1.04-10.702 1.377-14.078 6.644-2.627 4.101-3.596 9.156-2.917 13.482l-.339-.035c-2.403 0-3.677 1.777-4.439 2.842l-.329.451c-.282-.154-.569-.423-.841-.938-.528-1.028-1.044-3.142-.512-7.424.36-.699.697-1.381 1.02-2.035l.142-.295c.607-1.227 3.638-11.478 1.84-13.915-.678-.918-1.832-1.406-2.976-1.215-1.932.315-2.497 2.045-2.706 2.699-1.599 4.931-2.665 9.209-3.206 12.867-2.245 4.269-4.963 8.293-9.245 8.914-2.086.297-2.602-.451-2.852-.81-1.519-2.202-1.091-7.279-.221-11.555.561-.382.995-.955 1.201-1.655 1.56-5.327 2.267-7.761.004-9.211-1.142-.727-2.698-.595-3.722.288-2.076 1.808-6.462 16.783-3.098 24.137 1.725 3.764 5.121 5.486 9.568 4.844 3.604-.524 6.393-2.297 8.638-4.617.195.642.433 1.233.715 1.781 1.05 2.035 2.71 3.455 4.804 4.113.622.199 1.205.284 1.739.284 2.74 0 4.335-2.226 4.997-3.162l.286-.402c.542-.148 1.002-.467 1.379-.865l.211.38c1.27 1.796 3.97 4.393 8.953 4.391 1.198 0 2.527-.148 4.002-.498 1.932-.457 3.464-1.31 4.813-2.066 1.31-.733 2.344-1.314 3.522-1.454.703-.081 1.312-.404 1.777-.867.364 2.208 1.058 4.298 2.253 5.228.609.473 1.335.717 2.066.717.445 0 .896-.091 1.312-.278 2.036-.902 2.383-3.301 2.562-5.677.116-1.554-.951-2.919-2.436-3.213-.043-.776-.024-1.523.079-2.131.258-1.387 2.602-9.694 3.96-13.895zm33.962 17.098c-.425.317-.766.536-1.036.691-.226-1.678-.091-6.227 3.23-18.085l.254-.908c.845-3.146-1.4-4.078-1.861-4.237-2.773-.932-3.663 1.221-5.008 4.487-.721 1.757-1.717 4.166-2.273 5.204-3.149 5.843-6.791 10.04-9.284 10.69-1.117.288-1.895.246-2.328-.126-2.241-1.936-1.278-10.499-.967-13.314.307-2.73.595-5.303-2.172-5.988-2.907-.719-3.433.634-6.879 9.4-.52 1.332-1.095 2.677-1.672 4.038-1.29 3.018-2.623 6.142-3.522 9.378-.459 1.619.492 3.301 2.115 3.756 1.615.451 3.301-.494 3.754-2.114.579-2.08 1.404-4.202 2.277-6.304.5 2.334 1.444 4.344 3.08 5.76 1.4 1.213 3.896 2.443 7.852 1.412 2.667-.695 5.146-2.701 7.281-5.102-.12 3.987.762 6.376 2.623 7.653.831.569 1.747.853 2.74.853 1.611 0 3.435-.75 5.444-2.252 1.349-1.003 1.623-2.917.62-4.261-1.014-1.357-2.919-1.631-4.268-.628zm104.094-32.431l.484-.991c.412-.833.796-1.598 1.134-2.293l1.052-2.11c.378-.762.865-2.242-.095-3.597-.642-.914-1.745-1.399-2.844-1.269-1.103.13-2.06.877-2.48 1.905-.23.563-.62 1.391-1.099 2.383l-.067.134c-1.03 2.066-2.066 4.123-3.116 6.181l-.914.063c-5.521.39-11.226.798-14.486-.205-1.607-.492-3.315.408-3.809 2.017-.496 1.609.406 3.313 2.013 3.808l.067.016c-1.111.187-2.101.715-2.588 1.131-2.946 2.5-4.906 7.046-6.982 11.862-1.932 4.483-4.071 9.445-6.543 11.171-.341-3.77-.118-10.95.731-14.587.971.577 2.22.595 3.232-.059 1.406-.916 1.808-2.805.89-4.212-2.405-3.703-4.912-3.424-6.194-2.927-1.674.646-2.795 2.462-3.531 4.826-.382-.727-.831-1.408-1.41-1.99-1.694-1.702-4.059-2.6-6.836-2.6-6.96 0-15.053 5.441-18.041 12.13-.971 2.167-1.353 4.357-1.223 6.495-.522.546-.847 1.284-.847 2.098 0 2.344-2.836 5.441-5.519 6.018-1.444.313-2.003-.219-2.444-1.186-.492-1.085.059-2.831 1.028-4.71 1.008-1.412 1.869-2.876 2.602-4.117l.366-.615c.605-.853 1.18-1.631 1.65-2.261.894-1.206 1.67-2.25 2.247-3.166.313-.5 1.15-1.826.313-3.408-.508-.965-1.495-1.582-2.584-1.623-1.16-.041-2.247-.075-6.47 6.694l-.211.341c-1.107 1.554-2.21 3.213-3.114 4.919-1.115 1.523-2.354 2.868-3.344 3.018-.112.012-.402.057-1.028-.504-2.921-2.661 3.303-17.006 6.645-22.249.561-.311 1.034-.8 1.312-1.434 1.27-2.86-.301-4.156-1.036-4.58-.408-.236-2.531-1.278-4.368 1.239-.167.223-15.301 23.664-6.655 31.529 2.285 2.074 4.546 2.248 6.039 2.023.183-.028.366-.063.544-.106.122.518.292 1.026.518 1.527 1.406 3.095 4.1 4.842 7.285 4.842.646 0 1.312-.071 1.995-.217 3.084-.666 6.385-2.98 8.402-6.034.179.217.327.443.52.656 1.975 2.212 4.449 3.38 7.163 3.38 6.133 0 12.049-5.971 15.209-12.353.085 3.128.319 5.405.331 5.472.171 1.066.697 4.308 3.608 4.446 7.581.357 11.157-8.053 14.358-15.475.268-.632.544-1.261.817-1.889-1.782 8.545-2.539 13.537.425 15.694.841.611 2.633 1.418 5.211-.051 2.665-1.521 5.062-4.154 7.24-7.312.55 2.035 1.682 3.692 3.543 4.862 1.857 1.164 5.591 2.575 10.054-.768l-.018.938c-.024 2.084 1.06 3.158 1.712 3.611.774.546 1.605.737 2.409.737 1.227 0 2.407-.441 3.313-.782l.012-.006c.167.026.337.043.508.043 1.682 0 3.047-1.365 3.047-3.047 0-.999-.571-2.118-1.39-2.685-1.17-.81-2.391-.644-3.431-.319.106-1.436.329-2.36.876-4.343l.449-1.655c.484-1.82.945-3.544 1.515-5.226 1.353-2.872 2.131-5.403 1.711-6.589-.167-.473-.467-.861-.819-1.19.191.037.382.057.567.057 1.416 0 2.686-.993 2.982-2.435.613-2.992-.402-4.927-1.369-6.026-2.214-2.533-6.259-3.124-11.221-3.065zm-51.296 22.99c-2.316 5.569-7.057 10.273-10.354 10.273-.612 0-1.544-.14-2.623-1.347-2.456-2.746-2.98-5.569-1.603-8.644 2.184-4.879 8.388-8.524 12.481-8.524 1.14 0 1.989.274 2.519.808 1.128 1.127.957 4.117-.42 7.434zm39.762-13.521c-2.964 6.372-6.868 14.76-11.161 18.863.303-2.59 1.077-6.26 1.566-8.577 1.615-7.68 2.354-11.189-.051-13.06l-.126-.075c3.271.441 7.151.301 11.09.045-.429.902-.868 1.836-1.319 2.805zm18.523 1.16h-.012c-2.21.008-2.659 1.044-4.325 5.882-1.865 4.123-5.213 10.082-8.351 11.289-.721.278-1.274.219-1.956-.209-3.031-1.905.307-11.587 4.735-21.396 4.193-.207 8.613-.199 9.566.89.041.041.083.288-.02.784-.221 1.087.171 2.151.93 2.85-.189-.039-.37-.089-.567-.089zm-561.946-6.047c-1.239-.475-2.919-.993-4.845-1.517 1.018-.733 1.686-1.921 1.686-3.27 0-2.23-1.808-4.038-4.039-4.038s-4.039 1.808-4.039 4.038c0 .658.173 1.269.453 1.82-2.919-.64-6.054-1.233-9.142-1.722.343-5.362.618-10.334.508-14.142-.049-1.684-1.453-3.028-3.135-2.957-1.684.049-3.007 1.452-2.958 3.134.102 3.453-.146 8.104-.469 13.153-4.687-.502-8.733-.599-10.885.033-1.615.473-2.541 2.165-2.068 3.78.473 1.613 2.157 2.543 3.781 2.068 1.379-.402 4.701-.276 8.782.183-.158 2.508-.297 4.891-.404 7.143-.419.465-.701 1.056-.766 1.724-1.235 12.847-4.093 18.081-5.587 19.145-.266.191-.357.167-.353.183-1.41-1.044-2.033-9.369.465-22.273.299-1.544-.626-3.061-2.135-3.502-1.503-.447-3.106.335-3.687 1.797-1.849 4.645-4.335 8.667-6.249 10.757-.14-1.215-.4-2.435-.833-3.652-2.117-5.953-4.831-9.146-8.294-9.769-4.967-.888-8.845 3.741-11.959 7.466l-.264.315-.006-.756c0-3.39 1.578-19.196 2.186-24.999.177-1.674-1.038-3.173-2.712-3.347-1.664-.183-3.173 1.038-3.348 2.711-.091.865-2.22 21.231-2.22 25.632 0 3.924.254 7.846 3.273 8.941 3.005 1.091 5.215-1.54 7.766-4.59 1.534-1.832 4.723-5.644 6.21-5.378.171.03 1.723.453 3.628 5.811 1.635 4.602-.408 7.883-1.771 9.43-2.257 2.559-5.66 3.946-8.288 3.367-1.694-.37-2.858-1.58-3.462-3.597-.484-1.611-2.18-2.527-3.793-2.045-1.613.481-2.527 2.179-2.046 3.79 1.249 4.178 4.087 6.948 7.994 7.808.809.177 1.641.262 2.488.262 4.146 0 8.593-2.059 11.675-5.553 1.18-1.338 2.066-2.813 2.714-4.357 1.94-.36 3.736-1.56 5.339-3.193-.234 7.483 1.099 13.671 5.822 14.813.51.124 1.018.187 1.524.187 1.351 0 2.667-.437 3.872-1.3 1.507-1.072 2.745-2.785 3.772-4.866.823 2.844 2.121 4.781 4.077 5.748.987.488 1.993.733 2.988.733.918 0 1.828-.211 2.706-.626 2.08-.981 3.711-3.034 5.042-5.665.64 2.025 1.631 3.402 3.116 4.156 1.501.758 3.336.158 4.095-1.341.719-1.424.219-3.142-1.111-3.967-.583-.863-1.207-3.778-1.018-12.591.063-2.994.114-5.36-2.659-5.768-.455-.067-2.763-.258-3.573 2.646-.124.445-.288 1.141-.494 2.027-2.625 11.291-4.713 14.384-6.003 14.998-.085.043-.136.065-.378-.055-2.68-1.771-1.918-17.616-1.29-27.574 6.722 1.081 13.987 2.709 18.135 4.302.36.138.727.203 1.091.203 1.225 0 2.381-.743 2.846-1.956.603-1.572-.183-3.335-1.753-3.938zm-246.209-2.902v.025c0 2.23 1.808 4.038 4.039 4.038 2.204 0 3.996-1.766 4.038-3.96l.001-.127c0-2.23-1.808-4.038-4.039-4.038-2.204 0-3.996 1.766-4.038 3.96l-.001.103zm661.452-5.722v.025c0 2.23 1.808 4.038 4.039 4.038 2.204 0 3.996-1.766 4.038-3.96l.001-.127c0-2.23-1.808-4.038-4.039-4.038-2.204 0-3.996 1.766-4.038 3.96l-.001.103zm150.844 0c0 2.23 1.808 4.038 4.039 4.038 2.23 0 4.039-1.808 4.039-4.038 0-2.23-1.808-4.038-4.039-4.038-2.23 0-4.039 1.808-4.039 4.038zm0 0" fill="#fff" sketch:type="MSShapeGroup"/></svg>